<?xml version="1.0" encoding="utf-8"?>
<!-- Generator: Adobe Illustrator 16.0.0, SVG Export Plug-In . SVG Version: 6.00 Build 0)  -->
<!DOCTYPE svg PUBLIC "-//W3C//DTD SVG 1.1//EN" "http://www.w3.org/Graphics/SVG/1.1/DTD/svg11.dtd">
<svg version="1.1" id="Layer_1" xmlns="http://www.w3.org/2000/svg" xmlns:xlink="http://www.w3.org/1999/xlink" x="0px" y="0px"
	 width="541.67px" height="603.682px" viewBox="0 0 541.67 603.682" enable-background="new 0 0 541.67 603.682"
	 xml:space="preserve">
<rect id="Background__x28_light_grey_x29_" x="-296.097" y="-210.101" display="none" fill="#CCCCCC" width="1133.858" height="1133.857"/>
<rect id="Background__x28_white_x29_" display="none" fill="#FFFFFF" width="541.67" height="603.682"/>
<g>
	<g>
		<defs>
			<path id="SVGID_1_" d="M151.987,0c33.207,15.385,62.747,38.239,87.844,66.022c19.695,86.938,6.628,188.804-28.88,271.875
				c-32.321,11.168-62.169,29.717-86.908,54.869C177.888,284.388,198.533,126.681,151.987,0"/>
		</defs>
		<use xlink:href="#SVGID_1_"  overflow="visible" fill-rule="evenodd" clip-rule="evenodd" fill="#BE1E2D"/>
		<clipPath id="SVGID_2_">
			<use xlink:href="#SVGID_1_"  overflow="visible"/>
		</clipPath>
		<rect x="124.042" clip-path="url(#SVGID_2_)" fill="#1E1B4E" width="135.483" height="392.767"/>
	</g>
	<g>
		<defs>
			<path id="SVGID_3_" d="M247.097,39.62c101.219,54.199,157.186,188.611,142.778,302.523
				c-66.042-18.366-136.891-1.601-187.697,44.417C255.493,293.191,281.886,154.369,247.097,39.62"/>
		</defs>
		<use xlink:href="#SVGID_3_"  overflow="visible" fill-rule="evenodd" clip-rule="evenodd" fill="#1E1B4E"/>
		<clipPath id="SVGID_4_">
			<use xlink:href="#SVGID_3_"  overflow="visible"/>
		</clipPath>
		<rect x="202.178" y="39.62" clip-path="url(#SVGID_4_)" fill="#1E1B4E" width="202.105" height="346.94"/>
	</g>
	<g>
		<defs>
			<path id="SVGID_5_" d="M0,434.423c183.614,14.878,310.691-107.29,541.67-90.969c-69.572,27.797-128.476,77.039-168.155,140.59
				c13.351-40.42,34.414-77.869,62.025-110.267C268.943,377.167,172.051,464.199,0,434.423"/>
		</defs>
		<clipPath id="SVGID_6_">
			<use xlink:href="#SVGID_5_"  overflow="visible"/>
		</clipPath>
		<rect y="327.133" clip-path="url(#SVGID_6_)" fill="#F7941E" width="541.67" height="156.911"/>
	</g>
	<text transform="matrix(1 0 0 1 14.688 603.6816)"><tspan x="0" y="0" fill="#1E1B4E" font-family="'Lusitana-Bold'" font-size="120">MCG</tspan><tspan x="309.597" y="0" fill="#1E1B4E" font-family="'Lusitana-Bold'" font-size="100">ULF</tspan></text>
</g>
</svg>
