<?xml version="1.0" encoding="UTF-8" standalone="no"?>
<!DOCTYPE svg PUBLIC "-//W3C//DTD SVG 1.1//EN" "http://www.w3.org/Graphics/SVG/1.1/DTD/svg11.dtd">
<svg xmlns="http://www.w3.org/2000/svg" version="1.1" viewBox="0.00 0.00 590.00 160.00">
<path fill="#0e1130" d="
  M 226.39 79.35
  A 0.21 0.21 0.0 0 0 226.03 79.14
  C 222.19 83.37 218.95 89.38 215.70 94.54
  Q 214.23 96.88 209.86 102.05
  C 205.06 107.71 200.53 114.02 194.90 118.95
  C 187.65 125.29 179.13 121.34 177.10 112.58
  Q 176.10 108.22 176.47 103.81
  A 0.38 0.38 0.0 0 0 175.82 103.50
  Q 175.10 104.20 174.59 105.07
  Q 167.43 117.30 160.49 128.27
  Q 157.98 132.24 153.64 131.49
  Q 149.65 130.80 149.10 126.72
  C 148.73 124.01 149.81 122.84 151.15 120.67
  Q 170.61 89.08 174.19 81.94
  Q 182.91 64.54 185.53 58.28
  C 188.04 52.29 197.04 28.98 206.71 36.38
  C 211.42 40.00 208.19 45.23 205.49 49.50
  C 202.41 54.36 197.53 60.49 195.23 66.31
  Q 191.43 75.96 188.99 86.26
  C 187.17 93.98 187.95 100.22 188.21 107.83
  A 0.52 0.51 74.0 0 0 188.98 108.26
  L 189.45 107.99
  A 1.29 1.28 3.9 0 0 189.84 107.65
  Q 197.35 98.11 201.76 93.14
  C 206.30 88.02 209.13 82.21 213.17 76.41
  Q 221.18 64.92 226.34 58.06
  C 230.20 52.92 232.54 48.15 235.82 42.55
  A 16.41 16.15 69.8 0 0 237.30 39.28
  C 240.82 28.66 245.76 18.47 254.63 11.44
  C 257.60 9.09 262.18 8.15 265.03 11.14
  C 268.18 14.43 266.76 18.22 264.49 21.48
  Q 254.94 35.16 247.90 46.03
  A 7.53 7.34 72.2 0 0 247.15 47.54
  C 243.07 58.45 240.58 72.08 237.84 81.97
  Q 232.92 99.71 226.74 124.74
  Q 225.36 130.35 225.38 134.95
  Q 225.40 138.82 224.40 139.88
  C 220.01 144.55 213.43 142.10 213.40 135.73
  Q 213.36 128.64 215.57 120.02
  C 220.52 100.71 222.53 91.66 226.39 79.35
  Z"
/>
<path fill="#0e1130" d="
  M 276.16 117.68
  A 0.51 0.51 0.0 0 0 275.22 117.42
  Q 270.89 123.84 264.21 127.73
  Q 258.75 130.91 254.55 130.06
  C 248.44 128.81 245.05 123.19 245.63 116.77
  Q 245.89 113.77 248.00 109.81
  Q 252.38 101.61 261.42 92.41
  Q 266.79 86.94 271.23 84.76
  Q 276.41 82.22 283.62 83.41
  A 1.13 1.10 30.6 0 0 284.48 83.20
  Q 284.88 82.91 286.64 81.44
  C 291.41 77.46 297.47 82.78 296.00 88.30
  Q 291.92 103.71 288.72 113.42
  C 287.76 116.34 287.24 123.34 291.33 124.34
  C 297.70 125.92 303.35 121.98 308.80 118.29
  A 1.32 1.31 -17.8 0 0 309.37 117.19
  Q 309.29 111.97 311.04 106.77
  Q 315.00 95.01 318.71 83.69
  C 321.37 75.57 325.00 68.41 326.88 60.32
  Q 328.31 54.17 330.43 46.21
  C 331.46 42.38 334.03 38.90 338.23 38.14
  C 342.41 37.40 346.97 41.11 347.16 45.43
  Q 347.24 47.16 345.26 50.98
  C 335.64 69.50 328.91 90.51 322.33 110.59
  Q 319.50 119.25 324.81 126.37
  C 329.58 132.78 321.10 139.72 315.81 133.88
  Q 312.05 129.73 310.82 125.05
  A 0.63 0.63 0.0 0 0 309.72 124.81
  C 304.70 130.95 296.66 135.12 289.00 133.88
  C 280.76 132.54 276.48 125.54 276.16 117.68
  Z
  M 258.67 118.13
  L 279.18 95.43
  A 0.11 0.11 0.0 0 0 279.18 95.27
  L 279.15 95.25
  A 12.58 3.14 -47.9 0 0 268.39 102.48
  L 264.60 106.68
  A 12.58 3.14 -47.9 0 0 258.49 118.12
  L 258.51 118.14
  A 0.11 0.11 0.0 0 0 258.67 118.13
  Z"
/>
<path fill="#0e1130" d="
  M 360.52 105.02
  C 361.58 106.59 363.69 108.41 365.14 110.40
  Q 370.71 118.09 375.16 122.83
  C 379.23 127.16 383.91 131.79 389.39 134.81
  Q 396.39 138.68 403.42 139.77
  Q 407.70 140.43 408.62 141.62
  C 412.82 147.12 408.48 152.69 401.98 151.61
  Q 384.79 148.75 372.39 136.85
  Q 364.84 129.61 361.81 125.69
  C 355.95 118.10 352.62 113.14 346.29 107.98
  A 0.69 0.69 0.0 0 0 345.23 108.23
  Q 340.72 118.23 338.93 128.48
  A 3.06 2.85 66.7 0 1 338.59 129.43
  C 334.86 135.88 326.03 131.62 327.44 124.68
  Q 329.80 113.06 335.14 101.32
  A 0.49 0.49 0.0 0 0 335.04 100.77
  C 331.71 97.50 328.54 93.95 331.40 89.64
  Q 334.39 85.12 339.70 87.91
  A 0.79 0.78 24.0 0 0 340.80 87.49
  Q 345.07 76.33 349.93 67.46
  Q 352.72 62.37 363.22 47.94
  Q 366.03 44.07 368.05 43.50
  C 371.90 42.42 376.32 45.87 375.59 50.08
  Q 375.33 51.62 373.20 54.53
  C 368.44 61.03 361.71 69.84 357.96 77.93
  Q 353.77 86.94 350.87 93.80
  A 0.60 0.60 0.0 0 0 351.19 94.58
  Q 351.85 94.86 352.46 94.71
  Q 354.24 94.24 359.44 91.48
  Q 362.01 90.12 365.36 86.71
  Q 371.52 80.46 378.88 72.16
  C 384.47 65.86 393.12 73.50 388.44 79.20
  Q 381.71 87.37 372.52 96.26
  C 368.72 99.93 365.46 101.87 360.76 104.14
  A 0.60 0.60 0.0 0 0 360.52 105.02
  Z"
/>
<path fill="#0e1130" d="
  M 414.51 117.73
  A 0.58 0.58 0.0 0 0 413.46 117.36
  C 407.58 125.52 393.42 137.52 385.20 124.52
  C 382.39 120.08 383.85 113.47 386.65 108.82
  Q 394.88 95.14 406.48 86.47
  C 409.99 83.84 415.69 82.24 420.69 83.34
  Q 422.48 83.74 424.19 82.01
  C 427.82 78.32 433.23 80.53 434.24 85.14
  Q 434.57 86.66 433.50 90.66
  Q 430.42 102.17 426.84 113.55
  Q 425.40 118.15 426.97 122.25
  C 428.12 125.24 433.38 124.98 435.77 124.28
  C 441.51 122.59 446.39 118.67 452.55 114.92
  A 0.84 0.83 65.8 0 1 453.78 115.39
  Q 454.01 116.10 453.53 117.02
  Q 449.59 124.47 442.67 129.63
  C 435.46 135.00 424.30 136.45 418.19 128.75
  Q 414.21 123.73 414.51 117.73
  Z
  M 396.75 118.19
  L 417.33 95.41
  A 0.11 0.11 0.0 0 0 417.33 95.25
  L 417.31 95.24
  A 12.13 3.11 -47.9 0 0 406.87 102.15
  L 402.41 107.09
  A 12.13 3.11 -47.9 0 0 396.58 118.18
  L 396.60 118.19
  A 0.11 0.11 0.0 0 0 396.75 118.19
  Z"
/>
</svg>
